<svg width="422" height="215" viewBox="0 0 422 215" fill="none" xmlns="http://www.w3.org/2000/svg">
<path d="M0 213.911V198.521H9.88057V200.737H2.46515V205.338H8.57314V207.574H2.46515V213.911H0Z" fill="white"/>
<path d="M26.448 213.911H23.6235L19.2422 207.963H16.4177V213.911H13.9526V198.521H19.5715C21.1284 198.521 22.386 198.961 23.3441 199.839C24.3022 200.717 24.7912 201.845 24.7912 203.232C24.7912 204.24 24.5318 205.128 24.0128 205.887C23.4938 206.646 22.7652 207.204 21.8271 207.564L26.448 213.901V213.911ZM16.4277 200.717V205.777H19.5316C20.3699 205.777 21.0386 205.548 21.5277 205.089C22.0167 204.629 22.2662 204.021 22.2662 203.262C22.2662 202.504 22.0267 201.885 21.5277 201.416C21.0386 200.947 20.3699 200.717 19.5316 200.717H16.4277Z" fill="white"/>
<path d="M30.4601 213.911V198.521H40.5702V200.737H32.9252V204.679H38.6839V206.825H32.9252V211.696H40.8497V213.911H30.4601Z" fill="white"/>
<path d="M55.7304 198.521H58.1955V214.171H57.3572L47.9856 203.492V213.911H45.5105V198.272H46.3788L55.7304 208.901V198.521Z" fill="white"/>
<path d="M63.0759 206.216C63.026 204.021 63.8145 202.144 65.4313 200.577C67.0481 199.011 68.9544 198.242 71.17 198.272C72.5673 198.272 73.8448 198.591 75.0125 199.23C76.1802 199.869 77.0984 200.727 77.7571 201.815L75.8907 203.192C74.753 201.416 73.1861 200.538 71.18 200.538C69.5931 200.538 68.2757 201.076 67.2178 202.154C66.1599 203.232 65.6309 204.59 65.6309 206.226C65.6309 207.863 66.1599 209.22 67.2178 210.298C68.2757 211.376 69.5931 211.915 71.18 211.915C73.1861 211.915 74.753 211.027 75.8907 209.26L77.7571 210.638C77.0884 211.745 76.1802 212.604 75.0224 213.243C73.8647 213.871 72.5773 214.181 71.16 214.181C68.9544 214.211 67.0382 213.442 65.4213 211.875C63.8045 210.308 63.0161 208.422 63.066 206.236" fill="white"/>
<path d="M82.4678 213.911V198.521H84.933V204.659H92.6777V198.521H95.1528V213.911H92.6777V206.875H84.933V213.911H82.4678Z" fill="white"/>
<path d="M106.181 205.478H100.442V207.554H106.181V205.478Z" fill="white"/>
<path d="M120.762 213.911L119.665 211.346H112.738L111.64 213.911H109.006L115.792 198.272H116.631L123.417 213.911H120.762ZM118.776 209.22L116.211 202.853L113.627 209.22H118.776Z" fill="white"/>
<path d="M130.643 211.696H139.226V213.911H126.821V213.243L135.354 200.737H127.829V198.521H139.206V199.2L130.643 211.696Z" fill="white"/>
<path d="M143.637 213.911V198.521H153.758V200.737H146.113V204.679H151.871V206.825H146.113V211.696H154.037V213.911H143.637Z" fill="white"/>
<path d="M171.183 213.911H168.359L163.977 207.963H161.153V213.911H158.688V198.521H164.307C165.864 198.521 167.121 198.961 168.079 199.839C169.038 200.717 169.527 201.845 169.527 203.232C169.527 204.24 169.267 205.128 168.748 205.887C168.229 206.646 167.501 207.204 166.562 207.564L171.183 213.901V213.911ZM161.163 200.717V205.777H164.267C165.105 205.777 165.774 205.548 166.263 205.089C166.752 204.629 167.002 204.021 167.002 203.262C167.002 202.504 166.762 201.885 166.263 201.416C165.774 200.947 165.115 200.717 164.267 200.717H161.163Z" fill="white"/>
<path d="M186.773 209.44C186.773 210.747 186.314 211.815 185.395 212.654C184.477 213.492 183.27 213.911 181.782 213.911H175.185V198.521H180.565C181.952 198.521 183.06 198.911 183.908 199.679C184.757 200.448 185.176 201.436 185.176 202.633C185.176 203.831 184.747 204.789 183.898 205.528C184.797 205.827 185.505 206.316 186.004 206.995C186.513 207.683 186.763 208.492 186.763 209.44M180.325 200.697H177.601V204.849H180.325C181.074 204.849 181.653 204.659 182.072 204.29C182.491 203.911 182.701 203.402 182.701 202.753C182.701 202.104 182.491 201.615 182.082 201.246C181.673 200.887 181.084 200.697 180.325 200.697ZM184.268 209.37C184.268 208.622 184.028 208.033 183.549 207.614C183.07 207.184 182.401 206.975 181.563 206.975H177.601V211.755H181.563C182.421 211.755 183.08 211.546 183.559 211.117C184.038 210.688 184.268 210.109 184.268 209.38" fill="white"/>
<path d="M201.414 213.911L200.316 211.346H193.39L192.292 213.911H189.657L196.444 198.272H197.282L204.069 213.911H201.414ZM199.428 209.22L196.863 202.853L194.278 209.22H199.428Z" fill="white"/>
<path d="M210.606 198.521H208.141V213.911H210.606V198.521Z" fill="white"/>
<path d="M214.668 213.911V211.785C215.446 211.865 215.975 211.905 216.255 211.905C217.083 211.905 217.682 211.745 218.071 211.436C218.46 211.127 218.66 210.588 218.66 209.829V198.521H221.135V210.089C221.135 211.426 220.756 212.444 220.007 213.133C219.249 213.821 218.181 214.171 216.804 214.171C216.165 214.171 215.456 214.081 214.678 213.911" fill="white"/>
<path d="M236.475 213.911L235.377 211.346H228.451L227.353 213.911H224.718L231.505 198.272H232.343L239.13 213.911H236.475ZM234.489 209.22L231.924 202.853L229.339 209.22H234.489Z" fill="white"/>
<path d="M253.412 198.521H255.877V214.171H255.038L245.667 203.492V213.911H243.202V198.272H244.06L253.412 208.901V198.521Z" fill="white"/>
<path d="M264.18 198.521H261.715V213.911H264.18V198.521Z" fill="white"/>
<path d="M278.153 207.693V198.531H280.628V207.863C280.628 209.141 280.987 210.129 281.686 210.847C282.395 211.566 283.333 211.925 284.49 211.925C285.648 211.925 286.566 211.566 287.265 210.847C287.964 210.139 288.313 209.141 288.313 207.863V198.531H290.788V207.693C290.788 209.68 290.199 211.256 289.032 212.424C287.854 213.592 286.347 214.171 284.5 214.171C282.654 214.171 281.097 213.592 279.919 212.424C278.742 211.256 278.163 209.68 278.163 207.693" fill="white"/>
<path d="M306.687 198.521H309.162V214.171H308.324L298.952 203.492V213.911H296.477V198.272H297.335L306.687 208.901V198.521Z" fill="white"/>
<path d="M317.466 198.521H315V213.911H317.466V198.521Z" fill="white"/>
<path d="M333.165 198.521H335.939L329.163 214.171H328.314L321.538 198.521H324.312L328.743 209.23L333.165 198.521Z" fill="white"/>
<path d="M340.011 213.911V198.521H350.131V200.737H342.476V204.679H348.235V206.825H342.476V211.696H350.411V213.911H340.011Z" fill="white"/>
<path d="M367.557 213.911H364.733L360.351 207.963H357.527V213.911H355.062V198.521H360.681C362.238 198.521 363.495 198.961 364.453 199.839C365.411 200.717 365.9 201.845 365.9 203.232C365.9 204.24 365.641 205.128 365.122 205.887C364.603 206.646 363.874 207.204 362.936 207.564L367.557 213.901V213.911ZM357.537 200.717V205.777H360.641C361.479 205.777 362.148 205.548 362.637 205.089C363.126 204.629 363.375 204.021 363.375 203.262C363.375 202.504 363.136 201.885 362.637 201.416C362.148 200.947 361.479 200.717 360.641 200.717H357.537Z" fill="white"/>
<path d="M370.222 210.837L371.968 209.51C373.086 211.137 374.434 211.955 376 211.955C376.789 211.955 377.438 211.765 377.927 211.376C378.416 210.987 378.665 210.468 378.665 209.809C378.665 209.28 378.506 208.861 378.176 208.562C377.847 208.262 377.258 207.903 376.4 207.504L374.703 206.705C373.505 206.166 372.607 205.558 372.008 204.899C371.41 204.24 371.11 203.422 371.11 202.434C371.11 201.206 371.579 200.208 372.507 199.43C373.435 198.651 374.593 198.262 375.961 198.262C377.028 198.262 378.007 198.512 378.885 199.011C379.763 199.51 380.442 200.178 380.921 201.017L379.194 202.344C378.356 201.096 377.278 200.478 375.961 200.478C375.272 200.478 374.713 200.637 374.284 200.967C373.845 201.296 373.625 201.755 373.625 202.344C373.645 202.623 373.675 202.853 373.735 203.033C373.785 203.212 373.935 203.392 374.164 203.592C374.394 203.791 374.563 203.911 374.653 203.951C374.743 204.001 375.052 204.15 375.561 204.42C375.651 204.47 375.721 204.5 375.771 204.54L377.498 205.338C378.785 205.927 379.723 206.556 380.312 207.224C380.891 207.893 381.19 208.721 381.19 209.719C381.19 211.037 380.701 212.115 379.733 212.933C378.765 213.752 377.527 214.171 376.04 214.171C374.803 214.171 373.675 213.871 372.657 213.282C371.649 212.694 370.841 211.875 370.232 210.837" fill="white"/>
<path d="M388.686 198.521H386.22V213.911H388.686V198.521Z" fill="white"/>
<path d="M397.867 213.911V200.737H392.688V198.521H405.532V200.737H400.333V213.911H397.867Z" fill="white"/>
<path d="M422 198.521L416.69 207.713V213.911H414.215V207.713L408.896 198.521H411.65L415.453 205.218L419.275 198.521H422Z" fill="white"/>
<path d="M209.009 9.76272C199.927 12.3277 179.447 18.5654 171.782 21.819C169.407 33.2865 165.504 44.5443 161.482 55.8022C171.044 52.5985 193.629 45.5424 202.961 43.0373C208.59 30.3522 210.726 19.1642 209.009 9.75274" fill="#ED2939"/>
<path d="M0 119.028V48.5265H19.0126V120.285C19.0126 130.096 21.7372 137.751 27.1765 143.25C32.6158 148.749 39.8217 151.504 48.794 151.504C57.7664 151.504 64.7626 148.749 70.142 143.25C75.5215 137.751 78.2162 130.096 78.2162 120.285V48.5265H97.2288V119.028C97.2288 134.338 92.7176 146.474 83.6854 155.446C74.6532 164.419 63.026 168.9 48.794 168.9C34.562 168.9 22.5656 164.419 13.5434 155.446C4.51113 146.484 0 134.348 0 119.028Z" fill="white"/>
<path d="M265.258 48.5265L213.909 166.934H234.179L242.613 147.202H295.898L304.331 166.934H324.781L273.432 48.5265H265.258ZM249.429 130.875L269.34 81.9008L289.071 130.875H249.419H249.429Z" fill="white"/>
<path fill-rule="evenodd" clip-rule="evenodd" d="M159.546 72.1001C155.275 84.5956 152.011 96.3325 152.38 106.572C162.83 102.321 173.808 98.9673 184.278 95.7736C185.665 95.3544 187.032 94.9352 188.399 94.516C193.509 81.7212 197.591 69.5252 200.266 58.1276C185.884 61.9601 171.922 66.5211 159.546 72.0901" fill="white"/>
<path fill-rule="evenodd" clip-rule="evenodd" d="M125.892 144.198C122.759 153.67 126.641 165.486 137.43 179.379C140.055 156.873 149.516 136.374 165.624 118.249C142.899 124.427 129.545 133.14 125.882 144.198" fill="white"/>
<path fill-rule="evenodd" clip-rule="evenodd" d="M152.38 106.572C152.011 96.3325 155.275 84.5956 159.546 72.1001C142.649 79.7151 128.737 89.2165 120.832 101.313C114.734 110.644 112.419 120.994 113.836 132.761C123.427 120.665 137.34 112.69 152.39 106.572" fill="#002395"/>
<path fill-rule="evenodd" clip-rule="evenodd" d="M242.084 48.8259L200.256 58.1376C197.581 69.5252 193.509 81.7212 188.389 94.526C219.009 85.1544 244.689 76.1422 242.074 48.8359" fill="#ED2939"/>
<path fill-rule="evenodd" clip-rule="evenodd" d="M209.009 9.76272C208.839 20.8908 207.372 31.47 202.961 43.0473C232.972 34.8135 255.897 27.0986 257.903 0.590759L209.009 9.76272Z" fill="#00B9E4"/>
<path d="M162.46 53.0576C165.844 43.5762 169.576 32.6577 171.772 21.829C166.772 24.1045 162.061 26.5397 157.67 29.1346C133.697 43.3567 118.557 62.4092 111.69 87.0906C125.224 71.5911 142.979 62.4192 161.472 55.8122L162.46 53.0476V53.0576Z" fill="#3F9C35"/>
<path d="M355.98 149.887L421.82 53.7263V48.5265H334.273V65.563H392.219L326.558 161.734V162.303L328.564 166.934H422V149.887H355.98Z" fill="white"/>
<path fill-rule="evenodd" clip-rule="evenodd" d="M200.067 58.916C200.136 58.6566 200.196 58.3871 200.266 58.1276C185.884 61.9601 171.922 66.5211 159.546 72.0901C159.456 72.3596 159.367 72.6191 159.277 72.8886C171.802 67.3994 185.715 62.8184 200.067 58.916Z" fill="white"/>
<path fill-rule="evenodd" clip-rule="evenodd" d="M185.974 94.4162C174.946 97.7696 163.429 101.323 152.38 105.714C152.38 106.003 152.36 106.293 152.38 106.572C162.83 102.321 173.808 98.9673 184.278 95.7736C185.665 95.3544 187.032 94.9352 188.399 94.516C188.529 94.1967 188.649 93.8773 188.769 93.5679C187.841 93.8474 186.912 94.1368 185.974 94.4162Z" fill="white"/>
</svg>
